<svg height="452pt" viewBox="0 -5 452.0007 452" width="452pt" xmlns="http://www.w3.org/2000/svg"><path d="m444.308594 55.671875v220.277344c.003906 26.570312-21.53125 48.105469-48.097656 48.113281h-188.871094l-100.007813 110.378906-25.613281-110.378906h-25.929688c-26.566406-.007812-48.101562-21.542969-48.097656-48.113281v-220.277344c-.003906-26.566406 21.53125-48.105469 48.097656-48.109375h340.421876c26.566406.003906 48.101562 21.542969 48.097656 48.109375zm0 0" fill="#00efd1"/><g fill="#083863"><path d="m396.210938 0h-340.421876c-14.796874-.0703125-29.007812 5.769531-39.484374 16.222656-10.472657 10.453125-16.3437505 24.652344-16.304688 39.449219v220.277344c-.0507812 14.839843 5.800781 29.085937 16.265625 39.601562 10.46875 10.515625 24.6875 16.433594 39.523437 16.449219h19.574219l24.175781 104.21875c.65625 2.910156 2.886719 5.210938 5.773438 5.957031 2.890625.75 5.957031-.175781 7.945312-2.398437l97.628907-107.777344h185.324219c14.835937-.015625 29.054687-5.933594 39.523437-16.449219 10.464844-10.515625 16.316406-24.761719 16.265625-39.601562v-220.277344c.039062-14.796875-5.832031-28.996094-16.304688-39.449219-10.476562-10.453125-24.6875-16.2929685-39.484374-16.222656zm39.789062 275.949219c.058594 10.597656-4.109375 20.777343-11.574219 28.292969-7.46875 7.515624-17.621093 11.746093-28.214843 11.757812h-188.871094c-2.261719.011719-4.414063.976562-5.929688 2.660156l-89.742187 99.0625-22.15625-95.507812c-.835938-3.628906-4.066407-6.203125-7.792969-6.214844h-25.929688c-10.59375-.011719-20.746093-4.242188-28.214843-11.757812-7.464844-7.515626-11.632813-17.695313-11.574219-28.292969v-220.277344c-.042969-10.554687 4.140625-20.6875 11.613281-28.140625 7.476563-7.453125 17.621094-11.605469 28.175781-11.53125h340.421876c10.554687-.074219 20.699218 4.078125 28.175781 11.53125 7.472656 7.453125 11.65625 17.585938 11.613281 28.140625zm0 0"/><path d="m177.972656 110.402344-52.609375 52.597656 52.609375 52.597656 11.3125-11.316406-41.289062-41.28125 41.289062-41.28125zm0 0"/><path d="m262.714844 121.71875 41.292968 41.28125-41.292968 41.28125 11.3125 11.316406 52.609375-52.597656-52.609375-52.597656zm0 0"/><path d="m198.28125 234.535156 40-147.257812 15.441406 4.191406-40 147.261719zm0 0"/></g></svg>